<svg xmlns="http://www.w3.org/2000/svg" enable-background="new 0 0 2000 2000" viewBox="0 0 2000 2000"><polygon fill="#f1baa4" points="984.7 419.9 924.5 422 922.6 369 922.2 358.3 922.2 356.7 920.5 307.6 980.7 305.5 982.7 365.2 983 371.9 983.3 380.3"/><path fill="#252734" d="M925.8,1939.5c-6.7,19.2-210.3-5.8-220.8-30.8c-5.5-13.1-0.7-36.9,5.6-58.2c5.6-19.1,12.3-36.2,13.6-41.6
			l78.7-6.7l0.9,37.5c0,0,29.2,18.3,59.1,39.6c0,0,0,0,0,0C895.8,1902.6,929.3,1929.4,925.8,1939.5z"/><path fill="#252734" d="M999.7,1919.3c-3.1-9.5-1.8-29,0.7-49.1c3.9-30.5,10.8-62.2,10.8-62.2s81.6-5.8,86.9-9.6
			c5.3-3.8-0.5,43.2,0,46.1c0.2,1.3,24.3,11.7,51.7,25.4c34.9,17.5,75.2,40.5,78.4,57.2C1234,1956.8,1007.4,1943.3,999.7,1919.3z"/><path fill="#466991" d="M843.9,760.6c0,0-143.3,1039.5-137.2,1041.6c6.1,2,14.2,53.1,116.4,8.2c0,0,125-706.4,137.3-698.2
			s37.6,702.9,37.6,702.9s35.1,44,123-0.9c0,0,12.9-979.9-22.8-1043.3L843.9,760.6z"/><path fill="#252734" d="M984.2,1860.7c-0.1-0.3,0-0.7,0.1-0.9C984.4,1859.8,984.3,1860.1,984.2,1860.7z"/><path fill="#466991" d="M1105.1,549.5c-1,97.3-6.9,221.4-6.9,221.4l-50.8,14.1l-98.2,27.3l-3.3,0.9l-86.6-44.6l-15.4-7.9
			c0,0-5.5-37.9-11.5-88.4c-3.9-33-8.1-71.3-11.1-107.9c-5.4-66.2-7.1-126.6,3.4-138.6c2.3-2.6,4.6-4.9,6.9-6.9
			c14.9-12.9,29.9-13.7,42.9-17.3c6.6-1.9,12.7-4.5,18-9.8c0.1-0.1,0.3-0.3,0.4-0.4c0.2-0.2,0.4-0.3,0.5-0.5
			c4.9-5.3,8.9-10.4,12-15.2c4.9-7.3,7.9-13.5,9.4-17.2c1-2.4,1.5-3.9,1.5-3.9c0.3,0.2,1.7,1.1,3.9,2.4c0,0,0.1,0,0.1,0.1
			c0.6,0.3,1.2,0.7,1.9,1.1c4.1,2.4,10,5.5,17,8.4c9.6,3.9,21.2,7.1,32.8,6.8c3.3-0.1,6.6-0.5,9.9-1.3c0.3-0.1,0.7-0.2,1.1-0.3
			c2.2-0.5,4.5-1.3,6.6-2.3c0,0-2.3,7.4-0.9,15c1.1,6.1,4.6,12.5,13.6,15.1c0.2,0.1,0.4,0.1,0.6,0.2c1.6,0.5,3.5,0.8,5.5,1
			c3.5,0.3,7.4,0.5,11.6,0.8c19.7,1,45.6,2.1,63.1,13.8c0.4,0.2,0.7,0.5,1.1,0.7c7.7,5.4,13.7,12.9,16.6,23.5
			c0.5,1.7,0.9,3.9,1.3,6.5c0.8,5,1.4,11.7,1.8,19.6l0,0.7C1105.2,487.3,1105.4,516.9,1105.1,549.5z"/><path fill="#efeceb" d="M1105.4,430.2c0,0-18.3-13.1-20.6-14.6c-0.4-0.3-0.7-0.5-1.1-0.7c-21.3-14.2-54.9-12.7-74.7-14.5
			c-2.2-0.2-4.3-0.5-6.1-1.1c0,0,8.8,21.3,17.7,56.3c0.2,0.8-0.5,7.2-1.8,16.8c-4.9,38.6-18,129.7-18,129.7s-18.1-34.9-37.1-70.6
			c-8.7-16.5-17.6-33.1-25-46.6c-4.4-19.9-10.2-36.3-16.4-49.8c-0.5-1.2-1.1-2.3-1.6-3.4c-9.5-19.6-19.7-32.5-27.3-40.8
			c-15.9,16.3-38.8,7.9-61.3,27.5c-2.3,0.7-4.7,1.7-7,2.8c-12.8,0.2-21.5,6-27.3,15.3c-4,6.3-6.6,14.3-8.3,23.1
			c-4.4,23.5-1.7,53.1,0.8,74.8c4.9,41,16.8,137.3,38.9,158.5l1.8,25l-9,48.5l-38.3,206.3l-77.3,431c0,0,477.1,19.5,475.3,10.6
			c-1.8-8.9-75.4-717.3-75.4-717.3S1106.6,430.2,1105.4,430.2z"/><path fill="#252734" d="M914.9,639.6c-0.4,0-0.8-0.1-1.1-0.3c-0.5-0.3-0.8-0.8-0.8-1.4c-0.1-1-13.7-103.1-21.2-134.2
			c-7.1-29.6-35.6-65.7-39.2-68.4c-0.8-0.4-1.3-1.3-1.1-2.3c0.3-1,1.3-1.7,2.4-1.4c3.5,0.9,34.1,39.3,41.8,71.2
			c7,28.8,19,117.6,21,132.5l68.2-15.7c1.1-0.2,2.1,0.4,2.3,1.5c0.2,1.1-0.4,2.1-1.5,2.3l-70.3,16.2
			C915.2,639.6,915,639.6,914.9,639.6z"/><path fill="#252734" d="M898.7,750c-3.1,0-6-0.3-8.5-0.9c-29.1-6.8-41-26.3-48.1-38c-1.7-2.9-3.3-5.3-4.6-7c-0.7-0.8-0.6-2.1,0.3-2.8
			c0.8-0.7,2.1-0.6,2.8,0.3c1.6,1.9,3.1,4.5,5,7.5c7.2,11.9,18.2,29.8,45.7,36.2c34.2,8,139.4-47.7,140.5-48.2
			c0.9-0.5,2.1-0.1,2.6,0.8c0.5,1,0.1,2.1-0.8,2.6C1029.4,702.8,939.9,750,898.7,750z"/><path fill="#252734" d="M940.8,560.6c-2.1-15-9.8-54.7-33.9-71.6c-7.3-5.1-15.4-7.8-24.2-7.9c-2.4-22.7-3-63.9,9.7-89.3
				c0,0-15.3-1.3-18,9.8c-2.7,8.9-4.5,19.1-5.5,30.6c-1.9,21.1-0.4,40.9,0.6,50.4c-9.9,2.4-17.3,7.6-21.8,15.4
				c-13.1,22.3,1.8,60.7,8.5,75.7c-1.8,2.5-2.6,5.5-2,8.7c1.3,6.6,8.3,11.1,15.7,10c7.4-1.1,12.4-7.4,11.1-14.1
				c-1.1-5.8-6.6-9.9-12.9-10.1c-7.5-17-18-48.5-8.6-64.6c3.3-5.5,8.7-8.8,16.8-10c8.5-1.3,15.8,0.3,22.4,5
				c20.4,14.3,27.1,51.5,28.9,64.4c-3.5,2.7-5.5,6.9-4.6,11.3c1.3,6.6,8.3,11.1,15.7,10c7.4-1.1,12.4-7.4,11.1-14.1
				C949,565.6,945.4,562,940.8,560.6z"/><path fill="#252734" d="M1082.1,527.3c-2.1-11.3-12.6-19.4-24.7-20.3c-3.6-22-13.5-69.3-37.4-105.4c0,0-1.7-4.7-8.7-5.4
				c-7-0.7-8.4,3.7-8.4,3.7c26.5,34.5,37.5,86.5,41.2,109.2c-11.1,4.4-17.8,15.2-15.7,26.4c2.5,13.3,16.6,22.3,31.4,20
				C1074.6,553.2,1084.6,540.6,1082.1,527.3z"/><path fill="#efeceb" d="M1269.4,482.8l-31.8-3.8l-18.8-2.3c0,0-30.3,85.1-29.8,92.8l-99.3-145.8l4.9,205.6c0,0,19.7-3.6,19.7-3.5
			c0.7,3.1,13.2,53.4,85.3,60.3c74.4,7.1,97.9-199.9,97.9-199.9L1269.4,482.8z M1189.2,570.1
			C1189.2,570.1,1189.2,570.1,1189.2,570.1C1189.4,570,1189.4,570.1,1189.2,570.1z"/><rect width="179.5" height="237.9" x="1072" y="288.6" fill="#252734" transform="rotate(23.393 1161.637 407.425)"/><path fill="#465061" d="M1252.5,287.9c4.8-16.5-3.3-34.3-19.4-41.3c-8.1-3.5-16.8-3.7-24.5-1.1c-7.8,2.5-14.6,7.9-18.9,15.2
			l-23.7-10.2l-20.2,46.8l110.1,47.6l20.2-46.8L1252.5,287.9z M1215.2,288c-7.2-3.1-10.5-11.5-7.4-18.7s11.5-10.5,18.7-7.4
			c7.2,3.1,10.5,11.5,7.4,18.7S1222.4,291.1,1215.2,288z"/><path fill="#f1baa4" d="M1269.4,482.8l-31.8-3.8c0.3-2.3-0.1-4.3-1.2-6.3c-5.8-10.4-50.2-29.2-47.1-50.6c3-21.4,18-40.2,36.8-34.4
			c18.8,5.8,25.3,9.2,25.3,9.2s-7.1-35.8,3.9-33.8c11,2,11.7,43.5,13,77.2c1.3,33.7,1.3,33.7,1.3,33.7S1269.5,477.3,1269.4,482.8z"/><path fill="#252734" d="M1241.4,412.9c0.8,0,1.5-0.5,1.7-1.2c0.3-1-0.2-2-1.1-2.3l-32.4-11.2c-1-0.3-2,0.2-2.3,1.1
			c-0.3,1,0.2,2,1.1,2.3l32.4,11.2C1241,412.9,1241.2,412.9,1241.4,412.9z"/><path fill="#252734" d="M1236.1,425.9c0.8,0,1.5-0.5,1.8-1.3c0.3-1-0.2-2-1.2-2.3l-34.8-11.3c-1-0.3-2,0.2-2.3,1.2
			c-0.3,1,0.2,2,1.2,2.3l34.8,11.3C1235.8,425.8,1235.9,425.9,1236.1,425.9z"/><path fill="#252734" d="M1223,440.1c0.7,0,1.4-0.4,1.7-1.1c0.4-0.9,0-2-0.9-2.5l-26.6-12.7c-0.9-0.4-2,0-2.5,0.9
			c-0.4,0.9,0,2,0.9,2.5l26.6,12.7C1222.5,440,1222.8,440.1,1223,440.1z"/><path fill="#f1baa4" d="M1172.7,604.6c-1.4,6.5-6.8,6.5-6.8,6.5s7.3,3.6,8.2,9.4c0.9,5.7-11.8,6.8-11.8,6.8s5.2,1.9,3.1,9.7
			c-2.1,7.8-16.2,6.5-16.2,6.5c9.9,7.9-1.5,13.8-1.5,13.8s-40.9-3.9-40.1-1.1c0.8,2.9-9.1,14-29.8,26.2
			c-19.9,11.8-40.4,5.4-42.9,5.7c-7.5-11.2-21.1-26.9-30.1-36.5c9.4-7.1,67.3-50.4,79.5-55.7c13.3-5.8,49.9-3.4,63.7-2.4
			C1162,594.4,1174.1,598,1172.7,604.6z"/><path fill="#252734" d="M1162.5,610.2c0.5-0.5,0.7-1.3,0.4-1.9c-0.7-1.3-0.8-1.5-38.7-2c-9.6-0.1-19.6-0.2-20.7-0.4
			c-0.8-0.3-1.6,0.1-2,0.9c-0.3,0.8,0.2,1.8,1,2.1c0.7,0.3,2.5,0.3,21.6,0.6c13.6,0.2,34,0.4,36.6,0.9c0.4,0.2,1,0.3,1.5,0
			C1162.3,610.3,1162.5,610.3,1162.5,610.2z"/><path fill="#252734" d="M1158.1,626.6c0.3-0.3,0.5-0.7,0.5-1.1c0.1-0.9-0.6-1.6-1.5-1.7c-45.5-3-45.6-2.7-46.3-1.4
			c-0.4,0.8-0.1,1.7,0.7,2.1c0.4,0.2,0.8,0.2,1.2,0.1c2.7-0.2,28.4,1.3,44.2,2.4C1157.4,627,1157.8,626.9,1158.1,626.6z"/><path fill="#252734" d="M1146.1,643.5c0.3-0.3,0.5-0.6,0.5-1c0.1-0.9-0.5-1.7-1.4-1.8c-1.2-0.1-29.2-3-32.5-3c-0.9,0-1.6,0.7-1.6,1.6
			c0,0.9,0.7,1.6,1.6,1.6c2.6,0,22.2,2,32.2,3C1145.3,643.9,1145.8,643.7,1146.1,643.5z"/><path fill="#252734" d="M1106.4,581.6c-0.1,0-0.2,0-0.3,0c-1.1-0.2-1.8-1.2-1.6-2.3c1-6-8.8-133.9-9.9-139.3
			c-0.2-1.1,0.5-2.1,1.5-2.3c1-0.2,2.1,0.5,2.3,1.5c1.2,6,11.1,134.1,10,140.7C1108.2,580.9,1107.3,581.6,1106.4,581.6z"/><path fill="#f1baa4" d="M1045.7,265.6c-0.3,1.9-0.6,3.8-0.9,5.7c-3.1,17.5-8.9,35.2-19.3,48.9c-12.1,15.9-30.3,26.3-58,24.3
			c0,0-36.5,5.3-67.1-23.2c-1-0.9-1.9-1.8-2.8-2.8c-0.1-0.1-0.3-0.3-0.4-0.4c-9-9.3-17.3-21.7-23.9-38.3c0,0-27.4,1.4-35.1-27.2
			c-7.7-28.7,12.7-41.2,28.7-27c0,0,6.9-88.5,86.1-89.8c79.1-1.3,95,69.4,95,69.4C1047.4,206.9,1050.3,235,1045.7,265.6z"/><path fill="#252734" d="M1055.6,224.2c-27.1,4.5-52.3-44-52.3-44c-5.5,41.2-104.5-8.4-104.5-8.4c-1.7,18-13.2,50.4-20.3,69
			c-0.5,1.4-1.1,2.8-1.5,4c-2.4,6.3-4.1,10.2-4.1,10.2l-5.9-29.5c3,2.4-22-41.9-2.6-74c19.4-32.2,74.2-48.1,139-26.9
			C1068.1,145.9,1082.7,219.7,1055.6,224.2z"/><path fill="#252734" d="M905.2,230.8c0.5,0,0.9-0.2,1.3-0.5c10-9.2,19.4-5.2,23.4-3.5c1.5,0.7,2.8,1.2,3.9,0.2c0.8-0.7,0.8-2,0.1-2.8
			c-0.4-0.4-1-0.6-1.5-0.6c0,0,0,0,0,0c-0.2-0.1-0.5-0.2-0.9-0.4c-4.3-1.8-15.8-6.7-27.6,4.2c-0.8,0.7-0.8,2-0.1,2.8
			C904.1,230.6,904.6,230.8,905.2,230.8z"/><path fill="#252734" d="M1029,237.3c0.4,0,0.8-0.2,1.1-0.4c0.9-0.7,1-1.9,0.3-2.8c-0.1-0.1-11.3-14.1-29.8-8.3
			c-1,0.3-1.6,1.4-1.3,2.5c0.3,1,1.4,1.6,2.5,1.3c15.9-5,25.4,6.9,25.5,7C1027.8,237,1028.4,237.3,1029,237.3z"/><ellipse cx="921.5" cy="254.1" fill="#252734" rx="12.6" ry="10.9" transform="matrix(.06844 -.9977 .9977 .06844 604.945 1156.117)"/><circle cx="918.7" cy="250.5" r="5" fill="#e6e6e6"/><ellipse cx="1011.2" cy="260.3" fill="#252734" rx="12.6" ry="10.9" transform="matrix(.06844 -.9977 .9977 .06844 682.342 1251.307)"/><circle cx="1008.4" cy="256.7" r="5" fill="#e6e6e6"/><path fill="#466991" d="M1045.7,265.6c-0.3,1.9-0.6,3.8-0.9,5.7c-2.9,2.2-6.8,5.2-10.6,8.1l-8.7,40.8c-12.1,15.9-30.3,26.3-58,24.3
			c0,0-36.5,5.3-67.1-23.2c-1-0.9-1.9-1.8-2.8-2.8c-0.1-0.1-0.3-0.3-0.4-0.4l4.5-47.9c-7.8-8.2-19.2-20-24.8-25.3
			c0.5-1.3,1-2.6,1.5-4c2.3,2.1,6,5.8,12.7,12.6c7,7.2,14,14.6,14.1,14.6l126.1,8.5C1036.6,272.6,1042.8,267.8,1045.7,265.6z"/><path fill="#466991" d="M842,230.8c0,0,1.2-20.9,0-20.9c-1.2,0-62.1-92.6,48.2-138.6s179.6,7,195.3,57.1
			c15.7,50.1-19.2,59.4-19.2,59.4l16.3,22.7c0,0-30.9,1.7-44.9-8.2c-14-9.9-28.7-40.2-63-36.7c-34.3,3.5-71.3-14-84.6,8.7
			c-6.3,10.8-10.7,24.2-13.5,35.1c-3.2,12.5-14.4,21.2-27.3,21.2H842z"/><path fill="#252734" d="M850.9,206.9c-0.6,0-1.2-0.4-1.4-1c-0.3-0.8,0.1-1.6,0.8-1.9c2.4-1.3,28.6-20.3,30.2-37.5
			c0.7-7,4.3-12.7,10.6-16.7c11-7.1,28.5-7.5,46.8-1.2c13.6,4.7,25.7,2.8,36.3,1.2c12.3-1.9,23-3.6,32.7,4.9
			c3.5,3.1,7,6.6,10.8,10.3c14.7,14.7,29.9,29.9,47.9,21.5c0.7-0.4,1.6,0,2,0.7c0.4,0.8,0,1.6-0.7,2c-19.9,9.3-36.6-7.4-51.3-22.1
			c-3.7-3.7-7.2-7.2-10.6-10.2c-8.6-7.5-18.1-6.1-30.2-4.2c-11,1.7-23.5,3.6-37.8-1.3c-17.4-6-34-5.7-44.2,0.9
			c-5.4,3.5-8.6,8.5-9.2,14.5c-1.9,19.3-30.7,39.6-32.2,40C851.2,206.8,851,206.9,850.9,206.9z"/></svg>